<svg xmlns="http://www.w3.org/2000/svg" viewBox="0 0 48 48"><defs><style>.cls-1{fill:#42a5f5;}.cls-2{fill:#424242;}</style></defs><title>Cloud database</title><g id="Cloud_database" data-name="Cloud database"><rect class="cls-1" y="38" width="4" height="4" rx="1"/><rect class="cls-1" x="44" y="38" width="4" height="4" rx="1"/><rect class="cls-1" x="6" y="44" width="4" height="4" rx="1"/><rect class="cls-1" x="38" y="44" width="4" height="4" rx="1"/><ellipse class="cls-1" cx="24" cy="20" rx="16" ry="4"/><path class="cls-2" d="M40.58,12.34A16,16,0,0,0,11.12,8l-.23,0-.36,0c-.29,0-.58.08-.86.13l-.23,0c-.33.07-.66.16-1,.26h0A12,12,0,0,0,6.54,30.69l.09,0A12.84,12.84,0,0,0,8,31.3V32c0,1.13,1.23,2,3,2.53V39H6v2h6a1,1,0,0,0,1-1v-5a47.11,47.11,0,0,0,6,.77V45H12v2h8a1,1,0,0,0,1-1V35.93c1.48.06,2.61.07,3,.07s1.52,0,3-.07V46a1,1,0,0,0,1,1h8V45H29V35.82a47.11,47.11,0,0,0,6-.77v5a1,1,0,0,0,1,1h6V39H37V34.53c1.77-.58,3-1.4,3-2.53v-.21a9.23,9.23,0,0,0,1.3-.36,10,10,0,0,0,4.93-3.76,10.6,10.6,0,0,0,1-1.78A10.2,10.2,0,0,0,48,22,10,10,0,0,0,40.58,12.34ZM38,31.89c-.64.74-5.37,2.11-14,2.11s-13.36-1.37-14-2.11V28.15C14,29.93,22.74,30,24,30s10-.07,14-1.85Zm7.91-8.75c0,.06,0,.12,0,.18a9.45,9.45,0,0,1-.26,1.08.76.76,0,0,0,0,.11,8.27,8.27,0,0,1-1,2.08,8.55,8.55,0,0,1-.76.93,8.06,8.06,0,0,1-2,1.51,7.07,7.07,0,0,1-1.09.48,5.48,5.48,0,0,1-.72.22V23.11a10.06,10.06,0,0,1-2,1v1.8c-.64.74-5.37,2.11-14,2.11s-13.36-1.37-14-2.11v-1.8a10.06,10.06,0,0,1-2-1v6c-.26-.11-.51-.24-.76-.37s-.58-.33-.85-.51A10,10,0,0,1,2,20a10,10,0,0,1,8-9.79l.18,0q.38-.07.78-.12l.32,0c.25,0,.51,0,.77,0a10,10,0,0,1,2.73.38l.27,0a1,1,0,0,0,1-.73,1,1,0,0,0-.69-1.23,11,11,0,0,0-1.82-.35,14,14,0,0,1,25,3.91,11.07,11.07,0,0,0-1.53.05,1,1,0,0,0,.22,2A8,8,0,0,1,46,22,8.49,8.49,0,0,1,45.91,23.14Z"/></g></svg>