<!-- <svg xmlns="http://www.w3.org/2000/svg" width="24" height="24" viewBox="0 0 24 24" fill="none" stroke="currentColor" stroke-width="2" stroke-linecap="round" stroke-linejoin="round" class="feather feather-layers"><polygon points="12 2 2 7 12 12 22 7 12 2"></polygon><polyline points="2 17 12 22 22 17"></polyline><polyline points="2 12 12 17 22 12"></polyline></svg> -->

<svg xmlns="http://www.w3.org/2000/svg" width="24" height="24" viewBox="0 0 24 24" fill="none" stroke="currentColor" stroke-width="2" stroke-linecap="round" stroke-linejoin="round">
  <g>
    <!-- Shield Outline -->
    <path d="M12 2l8 4v6c0 5-3.5 9-8 10-4.5-1-8-5-8-10V6l8-4z"></path>
    
    <!-- Lock Icon Inside Shield -->
    <rect x="9" y="11" width="6" height="6" rx="1" ry="1"></rect>
    <path d="M10 11V9a2 2 0 1 1 4 0v2"></path>
  </g>
</svg>
