<svg xmlns="http://www.w3.org/2000/svg" viewBox="0 0 48 48"><defs><style>.cls-1{fill:#424242;}.cls-2{fill:#42a5f5;}</style></defs><title>Protection</title><g id="Protection"><path class="cls-1" d="M23.7,48A28.08,28.08,0,0,1,4,21.08c0-16.2-.21-15.55.51-15.95a39.54,39.54,0,0,1,39,0c.72.4.51-.25.51,16A28.08,28.08,0,0,1,24.3,48,.88.88,0,0,1,23.7,48ZM6,6.59V21.08A26.08,26.08,0,0,0,24,46,26.08,26.08,0,0,0,42,21.08V6.59A37.59,37.59,0,0,0,6,6.59Z"/><path class="cls-2" d="M30,21H18a1,1,0,0,0-1,1v8a1,1,0,0,0,1,1H30a1,1,0,0,0,1-1V22A1,1,0,0,0,30,21Zm-5,5.72V28a1,1,0,0,1-2,0V26.72a2,2,0,1,1,2,0Z"/><path class="cls-2" d="M28,15a4,4,0,0,0-8,0v4h8Z"/><path class="cls-2" d="M39.43,7.52a35.6,35.6,0,0,0-30.86,0,1,1,0,0,0-.57.9V21.08A24,24,0,0,0,23.65,43.71a1.05,1.05,0,0,0,.7,0A24,24,0,0,0,40,21.08V8.42A1,1,0,0,0,39.43,7.52ZM33,30a3,3,0,0,1-3,3H18a3,3,0,0,1-3-3V22a3,3,0,0,1,3-3V15a6,6,0,0,1,12,0v4a3,3,0,0,1,3,3Z"/></g></svg>